<svg width="40" height="40" viewBox="0 0 40 40" fill="none" xmlns="http://www.w3.org/2000/svg">
<path d="M15.1377 28.5243C16.7104 29.464 18.5428 30 20.5024 30C26.293 30 31 25.29 31 19.5C31 13.71 26.293 9 20.5024 9H20.4976C14.707 9 10 13.7087 10 19.5C10 21.6082 10.6244 23.5773 11.7015 25.2242L10.6765 28.2794L10.0487 30.1511L11.9291 29.55L15.1377 28.5243Z" fill="currentColor"/>
<path d="M26.0302 23.4153C25.801 24.0625 24.8913 24.5993 24.1658 24.756C23.6694 24.8617 23.021 24.946 20.8384 24.0412C18.0466 22.8845 16.2487 20.0476 16.1086 19.8635C15.9744 19.6795 14.9805 18.3613 14.9805 16.9981C14.9805 15.6348 15.6728 14.971 15.9518 14.686C16.181 14.4521 16.5598 14.3452 16.9232 14.3452C17.0408 14.3452 17.1465 14.3512 17.2415 14.3559C17.5205 14.3678 17.6607 14.3844 17.8447 14.825C18.0739 15.3772 18.632 16.7404 18.6985 16.8805C18.7662 17.0207 18.8339 17.2107 18.7389 17.3947C18.6498 17.5847 18.5715 17.669 18.4313 17.8305C18.2912 17.992 18.1582 18.1155 18.0181 18.2889C17.8898 18.4397 17.745 18.6012 17.9065 18.8803C18.068 19.1534 18.6261 20.0642 19.4478 20.7957C20.5083 21.7398 21.368 22.0414 21.6756 22.1697C21.9048 22.2647 22.1779 22.2421 22.3453 22.064C22.5579 21.8348 22.8203 21.4548 23.0875 21.0807C23.2775 20.8123 23.5174 20.7791 23.7692 20.8741C24.0257 20.9632 25.383 21.6341 25.662 21.773C25.9411 21.9132 26.1252 21.9797 26.1928 22.0972C26.2593 22.2148 26.2593 22.767 26.0302 23.4153Z" fill="#FFFFFF"/>
</svg>
