<svg width="300" height="50" viewBox="0 0 300 50" fill="none" xmlns="http://www.w3.org/2000/svg">
<path d="M134.139 14.2638L140.393 9.61572H119.456V37.4587H140.393V32.8106H125.438V25.7018H138.217V21.0537H125.438V14.2638H134.139Z" fill="currentColor"/>
<path d="M103.64 20.4613H96.3897V14.2638H107.991L114.245 9.61572H90.4079V37.4587H102.87C109.849 37.4587 113.882 34.2688 113.882 28.7093C113.882 23.3777 110.257 20.4613 103.64 20.4613ZM102.644 32.8106H96.3897V25.1094H102.644C106.45 25.1094 108.218 26.3853 108.218 28.9828C108.218 31.5802 106.314 32.8106 102.644 32.8106Z" fill="currentColor"/>
<path d="M157.341 9.61572H145.967V37.4587H151.949V29.5752H157.387C164.637 29.5752 169.169 25.7473 169.169 19.5954C169.169 13.4436 164.637 9.61572 157.341 9.61572ZM157.205 24.9271H151.903V14.2638H157.205C161.057 14.2638 163.142 16.1777 163.142 19.5954C163.142 23.0132 161.057 24.9271 157.205 24.9271Z" fill="currentColor"/>
<path d="M80.1662 31.4433C78.5801 32.3092 76.8127 32.7648 75 32.7648C69.6072 32.7648 65.71 28.8914 65.71 23.5598C65.71 18.2282 69.6072 14.3548 75 14.3548C76.9486 14.3092 78.852 14.9472 80.4381 16.0864L84.7432 12.8965L84.4713 12.6231C81.9788 10.3902 78.6254 9.25098 74.8187 9.25098C70.6949 9.25098 66.9335 10.6636 64.2145 13.2155C61.4955 15.8586 59.9547 19.5497 60.0453 23.3775C60 27.2509 61.4955 30.9876 64.2145 33.7218C67.0695 36.4104 70.8761 37.9142 74.7734 37.8231C79.0785 37.8231 82.8399 36.3193 85.3776 33.5851L81.5257 30.7142L80.1662 31.4433Z" fill="currentColor"/>
<path d="M241.088 9.66129V37.5043H247.069V26.1119H259.804V37.5043H265.785V9.66129H259.804V21.0992H247.069V9.66129H241.088ZM230.801 37.5043H237.1L225.408 9.66129H219.335L207.417 37.5043H213.444L215.846 31.8992H228.535L230.801 37.5043ZM217.659 27.2511L222.281 16.0866L226.631 27.2511H217.659ZM279.199 26.2486H282.915L292.069 37.4587H299.773L287.538 23.0587L298.233 9.61572H291.39L282.508 21.5549H279.199V9.61572H273.217V37.4587H279.199V26.2486ZM187.659 20.5068V14.3094H203.293V9.66129H181.677V37.5043H194.139C201.118 37.5043 205.151 34.3144 205.151 28.7549C205.151 23.4233 201.526 20.5068 194.909 20.5068H187.659ZM187.659 32.8562V25.1549H193.912C197.719 25.1549 199.486 26.4309 199.486 29.0283C199.486 31.6258 197.628 32.9017 193.912 32.9017H187.659V32.8562Z" fill="currentColor"/>
<path d="M41.3293 9.43311C42.4169 10.8458 43.3233 12.3951 44.0936 14.0356L23.1571 29.5748L14.3656 24.0153V17.3622L23.1118 22.8761L41.3293 9.43311Z" fill="currentColor"/>
<path d="M5.43759 23.5601C5.43759 23.2411 5.43759 22.9676 5.4829 22.6487L0.180789 22.3752C0.180789 22.7398 0.135471 23.1499 0.135471 23.5145C0.135471 29.8942 2.71855 35.6815 6.88774 39.8739L10.6491 36.0917C7.43154 32.9018 5.43759 28.4816 5.43759 23.5601Z" fill="currentColor"/>
<path d="M23.1118 5.78769C23.429 5.78769 23.7009 5.78769 24.0181 5.83326L24.29 0.501624C23.9275 0.501624 23.5196 0.456055 23.1571 0.456055C16.8127 0.456055 11.0574 3.05352 6.88822 7.24591L10.6495 11.0282C13.8218 7.79275 18.2628 5.78769 23.1118 5.78769Z" fill="currentColor"/>
<path d="M23.1118 41.3318C22.7946 41.3318 22.5227 41.3318 22.2054 41.2862L21.9335 46.6179C22.2961 46.6179 22.7039 46.6634 23.0665 46.6634C29.4109 46.6634 35.1662 44.066 39.3353 39.8736L35.574 36.0913C32.4018 39.3723 28.006 41.3318 23.1118 41.3318Z" fill="currentColor"/>
<path d="M33.0816 8.88633L37.568 5.55976C33.6254 2.36989 28.5952 0.4104 23.1118 0.4104V5.74203C26.8278 5.7876 30.2719 6.92684 33.0816 8.88633Z" fill="currentColor"/>
<path d="M46.1329 23.5599C46.1329 22.1473 45.997 20.7802 45.7704 19.4131L40.8308 23.1042C40.8308 23.2409 40.8308 23.4232 40.8308 23.5599C40.8308 28.8004 38.565 33.4941 34.9849 36.7295L38.565 40.694C43.1873 36.5016 46.1329 30.3498 46.1329 23.5599Z" fill="currentColor"/>
<path d="M23.1118 41.3316C17.9003 41.3316 13.2326 39.0531 10.0151 35.4531L6.07251 39.0531C10.287 43.7468 16.3595 46.6632 23.1118 46.6632V41.3316Z" fill="currentColor"/>
<path d="M11.2835 10.3903L7.70345 6.42578C3.03577 10.6637 0.135471 16.7701 0.135471 23.5599H5.43759C5.43759 18.365 7.70345 13.6258 11.2835 10.3903Z" fill="currentColor"/>
</svg>
