<?xml version="1.0" standalone="no"?>
<!DOCTYPE svg PUBLIC "-//W3C//DTD SVG 20010904//EN"
 "http://www.w3.org/TR/2001/REC-SVG-20010904/DTD/svg10.dtd">
<svg version="1.0" xmlns="http://www.w3.org/2000/svg"
 width="680.000000pt" height="680.000000pt" viewBox="0 0 680.000000 680.000000"
 preserveAspectRatio="xMidYMid meet">
<metadata>
Created by potrace 1.14, written by Peter Selinger 2001-2017
</metadata>
<g transform="translate(0.000000,680.000000) scale(0.100000,-0.100000)"
fill="#000000" stroke="none">
<path d="M4143 6266 c-13 -6 -23 -14 -23 -18 0 -5 -4 -8 -10 -8 -5 0 -67 -32
-137 -71 -70 -39 -150 -84 -178 -99 -27 -15 -103 -57 -169 -94 -65 -36 -120
-66 -122 -66 -1 0 -29 -15 -61 -34 -55 -32 -94 -53 -200 -112 -27 -15 -70 -39
-98 -54 -155 -87 -183 -102 -210 -116 -16 -8 -39 -21 -50 -27 -11 -7 -85 -48
-165 -92 -80 -44 -154 -85 -165 -92 -11 -6 -36 -20 -55 -29 -19 -10 -37 -21
-40 -24 -3 -3 -32 -19 -65 -35 -33 -17 -62 -33 -65 -36 -3 -3 -39 -23 -80 -45
-41 -21 -77 -42 -80 -45 -3 -3 -18 -12 -35 -21 -32 -16 -77 -40 -245 -133 -58
-32 -107 -60 -110 -62 -2 -2 -5 -86 -5 -185 l0 -181 -55 -30 c-30 -16 -91 -49
-135 -74 -44 -24 -100 -54 -125 -66 -25 -12 -47 -24 -50 -27 -3 -3 -79 -46
-170 -94 -91 -49 -178 -97 -195 -106 -16 -9 -100 -54 -185 -100 -85 -46 -162
-90 -171 -97 -15 -13 -17 -88 -17 -849 0 -459 -1 -837 -3 -838 -2 -2 -47 21
-99 52 -443 258 -457 265 -474 259 -7 -3 -30 -35 -50 -71 -33 -59 -35 -68 -22
-81 8 -8 17 -15 19 -15 3 0 139 -76 302 -170 164 -93 301 -170 306 -170 5 0 9
-4 9 -10 0 -5 4 -10 9 -10 5 0 127 -68 271 -150 144 -82 266 -150 271 -150 5
0 9 -4 9 -10 0 -5 4 -10 9 -10 5 0 64 -31 131 -70 67 -38 126 -70 131 -70 5 0
9 -4 9 -10 0 -5 4 -10 9 -10 5 0 80 -41 167 -91 88 -50 179 -102 204 -116 120
-67 890 -509 922 -530 21 -12 40 -23 43 -23 3 0 22 -11 43 -23 20 -13 57 -35
82 -49 25 -14 109 -62 187 -107 l143 -83 62 35 c35 19 99 54 143 78 44 24 98
53 120 65 22 13 65 36 95 52 220 119 558 304 570 312 8 6 29 17 46 25 18 8 58
30 90 48 33 19 95 53 139 77 44 24 103 56 130 71 28 15 75 40 105 56 47 25
307 167 435 238 22 12 76 41 120 65 44 24 103 57 130 72 28 16 73 40 100 54
28 14 64 33 80 43 17 10 71 39 120 66 50 26 104 56 120 65 33 20 101 56 220
120 44 24 94 51 112 61 182 103 528 289 535 289 7 0 -56 126 -72 144 -7 7 -88
-32 -235 -114 -69 -38 -144 -79 -215 -116 -41 -21 -81 -45 -88 -52 -7 -6 -17
-12 -22 -12 -4 0 -39 -17 -77 -39 -70 -39 -146 -81 -266 -145 -38 -20 -80 -44
-93 -52 -13 -9 -24 -12 -25 -8 -5 48 0 724 5 733 4 6 4 11 -1 11 -4 0 -7 75
-5 167 1 93 2 188 2 213 -1 37 0 179 1 215 0 6 0 48 0 95 0 47 0 94 0 105 0
11 0 52 0 90 -1 39 0 447 1 909 1 812 1 839 -18 850 -28 17 -128 72 -208 115
-126 68 -230 124 -291 158 -33 19 -72 39 -87 44 -16 6 -28 15 -28 20 0 5 -8 9
-18 9 -10 0 -22 4 -27 9 -6 6 -39 25 -75 44 -36 19 -85 45 -110 59 -25 14 -90
49 -145 78 -55 29 -104 56 -110 60 -5 4 -68 38 -140 75 -71 38 -143 77 -158
88 -15 10 -33 20 -40 21 -7 1 -22 7 -34 14 -12 7 -23 11 -25 11 -2 -1 -13 -6
-25 -13z m177 -256 c47 -26 121 -66 165 -90 44 -23 159 -85 255 -138 96 -52
209 -112 250 -135 41 -22 122 -66 180 -97 58 -31 137 -74 175 -95 39 -21 71
-39 73 -40 4 -3 -156 -95 -167 -95 -5 0 -11 -3 -13 -7 -1 -5 -21 -18 -43 -29
-22 -12 -105 -59 -185 -104 -80 -45 -170 -96 -200 -113 -30 -16 -95 -54 -145
-82 -99 -58 -167 -96 -235 -133 -25 -13 -49 -27 -55 -32 -5 -4 -41 -25 -80
-46 -38 -20 -83 -46 -100 -56 -16 -10 -42 -23 -57 -29 -16 -6 -28 -15 -28 -20
0 -5 -3 -8 -7 -7 -5 1 -19 -5 -33 -13 -14 -9 -210 -121 -437 -249 l-412 -232
-33 20 c-30 18 -296 162 -513 277 -49 26 -94 51 -100 55 -5 4 -64 36 -130 70
-66 35 -136 72 -155 83 -19 11 -62 35 -95 52 -66 35 -164 88 -207 113 -21 12
-25 19 -16 29 6 7 14 13 18 13 5 0 39 18 77 39 38 21 93 52 123 69 68 36 132
72 232 128 43 24 82 44 88 44 5 0 10 5 10 10 0 6 4 10 10 10 5 0 82 41 170 90
88 50 165 90 170 90 6 0 10 5 10 10 0 6 4 10 10 10 5 0 92 46 192 102 101 55
201 111 223 123 22 13 182 101 355 197 173 96 347 192 385 213 39 21 83 47 99
56 33 20 22 24 176 -61z m1191 -2017 c-1 -697 -3 -1434 -4 -1637 l-2 -369
-185 -102 c-301 -165 -317 -173 -387 -211 -38 -20 -90 -49 -118 -64 -79 -43
-153 -83 -250 -135 -49 -26 -94 -51 -100 -55 -9 -6 -79 -45 -422 -231 -29 -16
-77 -42 -105 -58 -29 -15 -78 -42 -108 -58 -30 -17 -156 -85 -278 -152 -123
-67 -227 -119 -230 -116 -7 7 -10 2963 -4 3143 2 50 7 92 11 92 5 0 46 22 92
48 46 27 109 62 139 79 30 16 122 68 203 114 82 46 165 93 185 105 20 11 111
62 202 114 91 51 179 101 195 110 41 23 353 199 390 220 17 9 82 46 145 82 63
36 142 80 175 98 33 18 116 66 185 105 69 40 152 87 185 105 33 18 64 36 69
41 5 5 12 7 14 5 2 -3 3 -575 3 -1273z m-3433 600 c70 -36 132 -69 137 -74 6
-4 53 -29 105 -57 52 -27 111 -58 130 -69 19 -11 64 -35 100 -54 36 -18 67
-36 70 -39 3 -3 30 -17 60 -32 30 -15 82 -42 115 -60 33 -18 122 -66 197 -107
l137 -74 3 -276 c5 -474 1 -2851 -4 -2857 -5 -4 -114 55 -256 139 -26 15 -56
32 -67 37 -11 6 -27 14 -35 20 -15 10 -150 88 -460 265 -85 49 -157 91 -160
94 -3 3 -21 14 -40 23 -52 26 -144 78 -155 89 -9 9 -16 3099 -7 3099 1 0 60
-30 130 -67z m-303 -686 c-1 -416 -3 -482 -15 -479 -8 2 -114 59 -235 127
-121 68 -238 133 -260 145 -22 12 -53 29 -70 39 -16 10 -57 33 -90 51 -33 18
-90 50 -127 71 -36 22 -72 39 -78 39 -16 0 -2 20 23 31 21 9 93 48 212 114 28
15 77 42 110 60 33 18 85 46 115 63 30 16 80 43 110 59 94 51 213 116 255 139
22 13 42 23 45 23 3 1 5 -216 5 -482z m-802 -239 c15 -11 27 -16 27 -11 0 4 4
4 8 -2 7 -10 72 -48 119 -70 13 -5 23 -13 23 -17 0 -5 5 -8 10 -8 6 0 47 -20
90 -45 44 -25 102 -57 128 -72 26 -14 61 -33 77 -43 17 -10 50 -29 75 -42 25
-14 90 -50 145 -81 l100 -56 0 -770 c0 -423 -3 -772 -6 -776 -3 -3 -69 31
-145 76 -76 44 -155 90 -174 100 -19 11 -53 31 -75 44 -22 13 -47 27 -55 32
-8 4 -106 60 -218 125 -112 65 -207 118 -211 118 -4 0 -17 9 -28 19 -21 20
-21 22 -21 785 l0 765 52 -26 c28 -14 63 -34 79 -45z"/>
<path d="M5116 3957 c-45 -26 -49 -28 -232 -130 -76 -43 -146 -82 -154 -88
-45 -27 -214 -119 -220 -119 -5 0 -10 -3 -12 -8 -1 -4 -25 -19 -53 -33 -27
-15 -70 -38 -95 -52 -179 -99 -216 -120 -225 -127 -5 -4 -39 -23 -75 -42 -107
-58 -161 -89 -230 -128 l-65 -38 1 -86 c0 -47 4 -89 7 -92 3 -4 48 17 99 45
209 118 439 247 465 261 16 9 71 40 123 69 52 30 113 64 135 76 202 113 229
128 403 227 57 32 107 58 112 58 5 0 21 11 37 24 27 23 29 28 28 109 0 47 -2
88 -5 90 -3 3 -22 -5 -44 -16z"/>
<path d="M5140 2990 c0 -5 -4 -10 -9 -10 -5 0 -238 -129 -517 -286 -280 -158
-529 -298 -554 -312 -124 -69 -295 -165 -299 -168 -3 -3 -5 -141 -2 -182 1
-10 13 -7 44 11 49 28 136 77 187 103 19 11 37 22 40 25 3 3 39 24 80 46 86
46 123 67 223 125 40 23 86 49 102 57 17 9 37 21 45 26 8 5 17 10 20 10 3 0
32 16 65 36 33 19 183 104 333 188 l272 153 0 94 c0 77 -3 94 -15 94 -8 0 -15
-4 -15 -10z"/>
<path d="M2130 2988 l0 -1093 58 -34 c114 -68 364 -217 400 -238 20 -13 45
-25 55 -29 9 -3 17 -10 17 -15 0 -5 4 -9 9 -9 11 0 129 -68 153 -88 9 -8 22
-12 29 -10 14 5 17 2215 3 2228 -5 4 -52 30 -104 58 -243 127 -342 179 -424
224 -49 26 -93 48 -98 48 -4 0 -8 5 -8 10 0 6 -3 9 -7 8 -5 -1 -22 6 -40 15
-18 9 -34 17 -38 17 -3 0 -5 -492 -5 -1092z m264 768 c44 -24 126 -67 181 -96
55 -29 104 -56 108 -60 12 -11 10 -1836 -1 -1833 -6 1 -63 35 -128 74 -66 40
-132 80 -149 89 -16 10 -46 27 -66 39 l-37 22 1 904 c0 498 2 905 5 905 2 0
41 -20 86 -44z"/>
<path d="M1082 2805 l0 -376 54 -34 c30 -19 56 -35 58 -35 2 0 68 -38 145 -85
78 -47 146 -85 151 -85 6 0 10 -4 10 -9 0 -5 9 -11 20 -14 20 -5 20 0 20 377
l0 382 -50 25 c-27 13 -50 27 -50 32 0 4 -5 7 -10 7 -6 0 -81 41 -166 91 -85
49 -161 92 -169 95 -11 4 -13 -61 -13 -371z m227 51 c3 0 18 -7 33 -15 l28
-16 0 -182 c0 -101 -3 -183 -6 -183 -3 0 -30 15 -60 33 l-55 32 1 177 c1 97 4
179 7 182 4 3 15 -2 26 -11 10 -10 22 -18 26 -17z"/>
<path d="M102 1902 l3 -95 75 -45 c41 -24 100 -58 130 -75 30 -16 72 -41 92
-54 21 -12 39 -23 42 -23 2 0 82 -45 177 -101 96 -56 194 -112 219 -126 74
-42 163 -93 195 -112 17 -10 57 -33 90 -51 59 -32 90 -50 248 -144 43 -25 80
-46 82 -46 2 0 81 -45 176 -100 94 -55 173 -100 174 -100 1 0 54 -30 116 -67
l114 -67 175 -3 175 -3 -59 35 c-32 20 -84 50 -116 68 -31 18 -154 88 -274
157 -119 69 -234 134 -254 146 -20 11 -69 40 -109 62 -39 23 -87 50 -105 61
-18 10 -125 71 -238 136 -113 65 -225 129 -250 143 -25 14 -78 45 -118 69 -41
24 -78 43 -83 43 -5 0 -9 5 -9 12 0 6 -3 8 -7 5 -3 -4 -13 -1 -22 7 -9 8 -40
27 -69 42 -29 16 -61 34 -70 39 -53 31 -183 106 -222 127 -25 14 -85 48 -134
77 -49 28 -93 51 -97 51 -5 0 -9 4 -9 9 0 5 -9 11 -20 14 -20 5 -21 2 -18 -91z"/>
<path d="M6085 1729 c-104 -60 -190 -109 -191 -109 -1 0 -51 -28 -111 -63 -60
-35 -116 -67 -124 -71 -8 -4 -23 -12 -34 -19 -17 -10 -215 -123 -325 -185 -19
-10 -60 -34 -90 -52 -30 -18 -64 -37 -75 -42 -11 -5 -36 -19 -57 -31 -20 -12
-96 -56 -168 -97 -73 -41 -144 -82 -159 -90 -36 -21 -267 -152 -316 -180 -22
-12 -68 -39 -103 -59 l-63 -36 162 -3 c153 -2 166 -1 209 20 25 13 52 28 60
34 8 7 38 24 65 38 28 15 57 31 65 37 16 9 185 106 255 144 22 12 80 45 129
74 49 28 90 51 91 51 1 0 51 28 111 63 60 35 116 66 124 70 8 4 33 18 55 31
37 21 442 252 525 299 19 10 65 37 103 59 l67 39 0 94 c0 52 -3 95 -7 94 -5 0
-93 -50 -198 -110z"/>
</g>
</svg>
