<svg width="40" height="40" viewBox="0 0 40 40" fill="none" xmlns="http://www.w3.org/2000/svg">
<path fill-rule="evenodd" clip-rule="evenodd" d="M19.253 26.9426H20.6278C20.6278 26.9426 21.0431 26.8975 21.2551 26.671C21.4502 26.4631 21.444 26.0727 21.444 26.0727C21.444 26.0727 21.4171 24.245 22.2733 23.9759C23.1173 23.7108 24.2011 25.7423 25.3498 26.5235C26.2185 27.1146 26.8785 26.985 26.8785 26.985L29.9501 26.9426C29.9501 26.9426 31.5568 26.8446 30.795 25.5929C30.7325 25.4905 30.3513 24.667 28.5113 22.9748C26.5853 21.2037 26.8433 21.4902 29.1632 18.4266C30.5761 16.5609 31.1409 15.4218 30.9645 14.934C30.7962 14.4693 29.7571 14.5921 29.7571 14.5921L26.2987 14.6135C26.2987 14.6135 26.0424 14.5788 25.8522 14.6914C25.6664 14.8019 25.5468 15.0593 25.5468 15.0593C25.5468 15.0593 24.9995 16.503 24.2695 17.7309C22.7295 20.3218 22.1137 20.4585 21.8621 20.2976C21.2766 19.9227 21.4228 18.7914 21.4228 17.9877C21.4228 15.4769 21.8071 14.43 20.6743 14.159C20.2984 14.069 20.0217 14.0096 19.0603 14C17.8264 13.9873 16.7819 14.0037 16.1905 14.2908C15.7971 14.4817 15.4936 14.9071 15.6785 14.9315C15.907 14.9618 16.4247 15.0698 16.6992 15.4401C17.0536 15.9177 17.0411 16.9906 17.0411 16.9906C17.0411 16.9906 17.2447 19.9462 16.5655 20.3134C16.0994 20.5652 15.4599 20.0511 14.087 17.7006C13.3835 16.4965 12.8524 15.1657 12.8524 15.1657C12.8524 15.1657 12.75 14.917 12.5673 14.7839C12.3456 14.6228 12.0359 14.5714 12.0359 14.5714L8.74952 14.5928C8.74952 14.5928 8.25618 14.6064 8.07508 14.8189C7.91397 15.0079 8.06228 15.3989 8.06228 15.3989C8.06228 15.3989 10.6351 21.3627 13.5484 24.3682C16.2196 27.1236 19.253 26.9426 19.253 26.9426Z" fill="currentColor"/>
</svg>
