<svg width="112" height="40" viewBox="0 0 112 40" fill="none" xmlns="http://www.w3.org/2000/svg">
<g clip-path="url(#clip0)">
<path d="M7.59006 -0.00292969L5.68897 5.23021H32.032L33.9331 -0.00292969H7.59006ZM4.739 7.84507L2.83791 13.0771H29.181L31.082 7.84507H4.739ZM1.89249 15.6931L-0.00860596 20.9251H26.3344L28.2344 15.6931H1.89249Z" fill="currentColor"/>
<path d="M55.9962 22.92V23.0309C57.2002 23.4743 58.3507 24.2514 58.9532 24.7497C60.8145 26.3029 61.6369 28.3543 61.6369 31.016C61.6369 35.3989 59.3371 38.5589 55.5588 39.5577C54.4084 39.8903 53.2044 40.0011 50.9593 40.0011H39.5175V7.94629H49.6471C51.7282 7.94629 53.1509 8.05715 54.4095 8.38857C58.0784 9.38743 60.4875 11.9383 60.4875 15.9863C60.4875 18.1497 59.721 19.9806 58.4623 21.2C57.9144 21.7543 57.1478 22.4206 55.9985 22.9189L55.9962 22.92ZM45.8677 26.3029V34.7326H50.2485C51.5619 34.7326 52.767 34.6217 53.6429 33.7897C54.5189 32.9577 54.9016 31.904 54.9016 30.5177C54.9016 29.4651 54.6271 28.4663 54.0803 27.7451C53.1497 26.5806 51.9993 26.3029 50.0287 26.3029H45.8666H45.8677ZM45.8119 20.7566H49.3715C50.4661 20.7566 51.014 20.7566 51.5607 20.5909C53.0404 20.1463 53.971 18.8171 53.971 16.9863C53.971 14.824 52.9857 13.88 51.5607 13.4377C50.9582 13.2709 50.3568 13.216 49.1516 13.216H45.8119V20.7577V20.7566ZM71.1628 40.0023V13.3257H62.0196V7.94743H87.4263L85.6198 13.3257H77.5154V40.0023H71.164H71.1628ZM89.3969 40.0023V7.94743H109.985L108.179 13.3257H95.6948V20.4251H100.787C104.894 20.4251 107.03 21.424 108.508 22.6983C109.658 23.6971 111.629 25.9143 111.629 30.2971C111.629 34.6229 109.604 37.0069 107.905 38.2274C105.935 39.6126 103.854 40.0023 99.637 40.0023H89.398H89.3969ZM95.6936 34.6217H100.457C102.264 34.6217 103.358 34.1783 104.125 33.1794C104.508 32.6811 105.056 31.792 105.056 30.1291C105.056 28.4663 104.508 27.3006 103.413 26.4686C102.757 25.9703 101.88 25.6937 100.401 25.6937H95.6925V34.6217H95.6936Z" fill="currentColor"/>
</g>
<defs>
<clipPath id="clip0">
<rect width="111.628" height="40" fill="white"/>
</clipPath>
</defs>
</svg>
